<svg width="427" height="355" viewBox="0 0 427 355" fill="none" xmlns="http://www.w3.org/2000/svg">
<path d="M52.0999 256.6V214.9H1.3999V190.2L45.5999 86.9004H79.2999V191.9H96.6999V215H79.2999V256.7H52.0999V256.6ZM25.6999 191.9H52.0999V118.1L25.6999 191.9Z" fill="#27282D" stroke="#27282D" stroke-miterlimit="10" stroke-linecap="round" stroke-linejoin="round"/>
<path d="M156.3 259.1C146.4 259.1 138.2 257 131.7 252.8C125.2 248.6 120.3 242.8 117 235.4C113.7 228 112.1 219.5 112.1 209.8V134.6C112.1 124.7 113.7 116 116.8 108.5C119.9 101 124.8 95.2002 131.3 91.0002C137.8 86.8002 146.1 84.7002 156.3 84.7002C166.5 84.7002 174.8 86.8002 181.3 91.0002C187.8 95.2002 192.6 101 195.8 108.5C198.9 116 200.5 124.7 200.5 134.6V209.8C200.5 219.4 198.9 228 195.6 235.4C192.3 242.8 187.4 248.6 180.9 252.8C174.4 257 166.2 259.1 156.3 259.1ZM156.3 234.2C160.6 234.2 163.8 232.9 165.9 230.2C168 227.5 169.4 224.3 170.1 220.6C170.8 216.8 171.1 213.1 171.1 209.5V135.1C171.1 131.2 170.8 127.3 170.2 123.5C169.6 119.7 168.2 116.4 166.1 113.8C164 111.1 160.7 109.8 156.2 109.8C151.7 109.8 148.4 111.1 146.3 113.8C144.2 116.5 142.8 119.7 142.2 123.5C141.6 127.3 141.3 131.2 141.3 135.1V209.5C141.3 213.1 141.7 216.8 142.5 220.6C143.3 224.4 144.7 227.6 146.8 230.2C149 232.9 152.1 234.2 156.3 234.2Z" fill="#27282D" stroke="#27282D" stroke-miterlimit="10" stroke-linecap="round" stroke-linejoin="round"/>
<path d="M269.7 256.6V214.9H219V190.2L263.2 86.9004H296.9V191.9H314.3V215H296.9V256.7H269.7V256.6ZM243.3 191.9H269.7V118.1L243.3 191.9Z" fill="#27282D" stroke="#27282D" stroke-miterlimit="10" stroke-linecap="round" stroke-linejoin="round"/>
<path d="M64.8001 256.6V214.9H14.1001V190.2L58.3001 86.9004H92.0001V191.9H109.4V215H92.0001V256.7H64.8001V256.6ZM38.4001 191.9H64.8001V118.1L38.4001 191.9Z" fill="white" stroke="#27282D" stroke-miterlimit="10" stroke-linecap="round" stroke-linejoin="round"/>
<path d="M168.9 259.1C159 259.1 150.8 257 144.3 252.8C137.8 248.6 132.9 242.8 129.6 235.4C126.3 228 124.7 219.5 124.7 209.8V134.6C124.7 124.7 126.3 116 129.4 108.5C132.5 101 137.4 95.2002 143.9 91.0002C150.4 86.8002 158.7 84.7002 168.9 84.7002C179.1 84.7002 187.4 86.8002 193.9 91.0002C200.4 95.2002 205.2 101 208.4 108.5C211.5 116 213.1 124.7 213.1 134.6V209.8C213.1 219.4 211.5 228 208.2 235.4C204.9 242.8 200 248.6 193.5 252.8C187.1 257 178.9 259.1 168.9 259.1ZM168.9 234.2C173.2 234.2 176.4 232.9 178.5 230.2C180.6 227.5 182 224.3 182.7 220.6C183.4 216.8 183.7 213.1 183.7 209.5V135.1C183.7 131.2 183.4 127.3 182.8 123.5C182.2 119.7 180.8 116.4 178.7 113.8C176.6 111.1 173.3 109.8 168.8 109.8C164.3 109.8 161 111.1 158.9 113.8C156.8 116.5 155.4 119.7 154.8 123.5C154.2 127.3 153.9 131.2 153.9 135.1V209.5C153.9 213.1 154.3 216.8 155.1 220.6C155.9 224.4 157.3 227.6 159.4 230.2C161.6 232.9 164.7 234.2 168.9 234.2Z" fill="white" stroke="#27282D" stroke-miterlimit="10" stroke-linecap="round" stroke-linejoin="round"/>
<path d="M282.3 256.6V214.9H231.6V190.2L275.8 86.9004H309.5V191.9H327V215H309.6V256.7H282.3V256.6ZM255.9 191.9H282.3V118.1L255.9 191.9Z" fill="white" stroke="#27282D" stroke-miterlimit="10" stroke-linecap="round" stroke-linejoin="round"/>
<path d="M284.7 277.2V284.4H288.4V280.2C288.4 278.4 289.9 276.9 291.7 276.9H304C305.8 276.9 307.3 278.4 307.3 280.2V284.4H311V277.2C311 275.4 309.5 273.9 307.7 273.9H288C286.2 273.9 284.7 275.4 284.7 277.2Z" fill="#27282D" stroke="#27282D" stroke-miterlimit="10" stroke-linecap="round" stroke-linejoin="round"/>
<path d="M324 282.4H253.5C250.9 282.4 248.8 284.5 248.8 287.1V343.8C248.8 345.5 250.2 346.8 251.8 346.8H325.7C327.4 346.8 328.7 345.4 328.7 343.8V287.1C328.7 284.5 326.6 282.4 324 282.4Z" fill="#27282D" stroke="#27282D" stroke-miterlimit="10" stroke-linecap="round" stroke-linejoin="round"/>
<path d="M333.8 282.4H263.3C260.7 282.4 258.6 284.5 258.6 287.1V343.8C258.6 345.5 260 346.8 261.6 346.8H335.5C337.2 346.8 338.5 345.4 338.5 343.8V287.1C338.5 284.5 336.4 282.4 333.8 282.4Z" fill="#8A8A8A" stroke="#27282D" stroke-miterlimit="10" stroke-linecap="round" stroke-linejoin="round"/>
<path d="M358.5 155.901C358.5 155.901 338.4 216.301 336.7 227.201C335 238.101 336.1 251.701 337.1 258.601C338.1 265.501 348.9 324.801 348.9 324.801C348.9 324.801 346.2 323.901 346.1 325.801C345.9 327.701 346.6 335.801 346.6 335.801C346.6 335.801 343.8 339.701 336.5 343.901C329.2 348.101 325.6 349.401 327.8 350.801C330 352.201 339.3 352.701 343.1 352.101C346.9 351.501 357.2 350.301 358.8 350.101C360.5 349.801 365.5 350.901 367.1 348.001C368.7 345.101 367.5 336.301 367.9 333.201C368.3 330.101 366 325.101 366 324.401C366 323.701 364 256.601 364 256.601L365.3 240.001C365.3 240.001 364.9 255.901 366.8 257.601C368.6 259.401 387.6 325.501 387.6 325.501L385.8 328.401L388.1 334.801L386.3 338.901C386.3 338.901 377.6 347.001 374.1 349.001C370.6 351.001 367 351.601 368.9 353.201C370.9 354.801 390 353.901 390 353.901L410 349.801C410 349.801 413 346.401 412.5 343.501C412 340.601 409.3 330.401 409.3 330.401C409.3 330.401 409.9 317.001 409.2 316.501C408.5 316.001 404.8 311.101 404.5 309.201C404.2 307.301 402.1 269.901 399.9 263.601C397.7 257.301 395 247.501 395 247.501C395 247.501 396.5 245.901 396.7 244.201C396.8 242.501 396.3 239.401 396.3 239.401C396.3 239.401 417.2 185.101 418.1 182.001C419.1 178.901 423.4 162.201 423.4 155.501C423.4 148.801 422.9 143.801 422.9 143.801C422.9 143.801 406.7 151.201 390.2 151.901C373.7 152.601 359.1 151.701 359.1 151.701L358.5 155.901Z" fill="#27282D" stroke="#27282D" stroke-miterlimit="10" stroke-linecap="round" stroke-linejoin="round"/>
<path d="M408.5 158.001C408.5 158.001 408.5 174.201 416.6 177.401" stroke="white" stroke-miterlimit="10" stroke-linecap="round" stroke-linejoin="round"/>
<path d="M420.2 153.201C420.2 153.201 420.7 164.201 418.5 174.001" stroke="white" stroke-miterlimit="10" stroke-linecap="round" stroke-linejoin="round"/>
<path d="M404.6 203.102C402.4 207.802 400.7 211.502 400.6 211.802" stroke="white" stroke-miterlimit="10" stroke-linecap="round" stroke-linejoin="round"/>
<path d="M415.4 180.201C415.4 180.201 410.2 191.101 405.9 200.101" stroke="white" stroke-miterlimit="10" stroke-linecap="round" stroke-linejoin="round"/>
<path d="M367.4 225.002L376.2 187.202L366.9 179.102" stroke="white" stroke-miterlimit="10" stroke-linecap="round" stroke-linejoin="round"/>
<path d="M365.5 233.201L366.4 229.301" stroke="white" stroke-miterlimit="10" stroke-linecap="round" stroke-linejoin="round"/>
<path d="M319.6 69.3001L295.7 79.7001C295.7 79.7001 310 50.0001 310.6 48.2001C311.2 46.4001 302.7 31.8001 302.9 31.2001C303.1 30.6001 310.4 21.7001 310.6 19.8001C310.8 17.9001 314.8 11.1001 311.8 10.7001C308.7 10.3001 292.3 25.6001 291.9 29.4001C291.5 33.3001 299.2 46.4001 300 47.5001C300.8 48.7001 260.2 92.1001 259.5 99.0001C258.7 105.9 262 110.4 267.8 111.2C273.6 112 319.1 96.3001 326.1 94.4001C333 92.5001 335.4 95.6001 335.4 95.6001C335.4 95.6001 357.2 122 358.8 125.3C360.3 128.6 359.6 140.7 357.8 144.4C356.1 148.1 354.1 154.4 355.1 155.4C356.1 156.4 356.8 157.6 359.7 158.3C362.6 159.1 382.7 161.5 394.1 159.8C405.5 158.1 419 152.1 422.1 149.8C425.2 147.5 425.6 144.8 425.6 141.3C425.6 137.8 423.3 134.7 421.7 131.3C420.2 127.8 409.9 96.0001 405.7 85.8001C401.5 75.6001 402.8 67.9001 386.8 58.8001C370.8 49.7001 352 51.6001 352 51.6001L319.6 69.3001Z" fill="#0667B3" stroke="#27282D" stroke-miterlimit="10" stroke-linecap="round" stroke-linejoin="round"/>
<path d="M294.7 94.2998L294.5 97.2998" stroke="#27282D" stroke-miterlimit="10" stroke-linecap="round" stroke-linejoin="round"/>
<path d="M289.5 98.9992L295.7 79.6992L294.9 91.9992" stroke="#27282D" stroke-miterlimit="10" stroke-linecap="round" stroke-linejoin="round"/>
<path d="M288.9 62.5996C288.9 62.5996 289.9 69.8996 299.3 70.2996" stroke="#27282D" stroke-miterlimit="10" stroke-linecap="round" stroke-linejoin="round"/>
<path d="M333.1 93.9996C333.1 93.9996 326.2 89.3996 319 87.0996Z" fill="white"/>
<path d="M333.1 93.9996C333.1 93.9996 326.2 89.3996 319 87.0996" stroke="#27282D" stroke-miterlimit="10" stroke-linecap="round" stroke-linejoin="round"/>
<path d="M316.9 89.5992C316.1 89.4992 315.3 89.2992 314.6 89.1992" stroke="#27282D" stroke-miterlimit="10" stroke-linecap="round" stroke-linejoin="round"/>
<path d="M330.6 92.6996C330.6 92.6996 325.7 91.2996 319.6 90.0996" stroke="#27282D" stroke-miterlimit="10" stroke-linecap="round" stroke-linejoin="round"/>
<path d="M366 132.1C366.7 132.7 367.2 133 367.3 133" stroke="#27282D" stroke-miterlimit="10" stroke-linecap="round" stroke-linejoin="round"/>
<path d="M358.6 125.5C358.6 125.5 362 128.7 364.6 130.9" stroke="#27282D" stroke-miterlimit="10" stroke-linecap="round" stroke-linejoin="round"/>
<path d="M400.3 158.9L417.5 148" stroke="#27282D" stroke-miterlimit="10" stroke-linecap="round" stroke-linejoin="round"/>
<path d="M410.1 116.699C408.2 124.499 404.4 137.899 399.9 144.399" stroke="#27282D" stroke-miterlimit="10" stroke-linecap="round" stroke-linejoin="round"/>
<path d="M411.5 110.6C411.5 110.6 411.3 111.8 410.8 113.7" stroke="#27282D" stroke-miterlimit="10" stroke-linecap="round" stroke-linejoin="round"/>
<path d="M411.5 120.8C411.5 120.8 407.8 136.8 404.9 141.3" stroke="#27282D" stroke-miterlimit="10" stroke-linecap="round" stroke-linejoin="round"/>
<path d="M305.7 58.7007C308.2 53.4007 310.3 48.9007 310.5 48.3007C311.1 46.6007 302.6 31.9007 302.8 31.3007C303 30.7007 310.3 21.8007 310.5 19.9007C310.7 18.0007 314.7 11.2007 311.7 10.8007C308.6 10.4007 292.2 25.7007 291.8 29.5007C291.4 33.4007 299.1 46.5007 299.9 47.6007C300.1 47.8007 298.4 50.0007 295.6 53.3007C296.7 56.0007 299.3 59.3007 305.7 58.7007Z" fill="white" stroke="#27282D" stroke-miterlimit="10" stroke-linecap="round" stroke-linejoin="round"/>
<path d="M302.4 20.9004C302.4 20.9004 297.6 30.3004 297.7 31.0004" stroke="#27282D" stroke-miterlimit="10" stroke-linecap="round" stroke-linejoin="round"/>
<path d="M298.8 21.1006C298.8 21.1006 293.3 28.9006 293.6 30.2006" stroke="#27282D" stroke-miterlimit="10" stroke-linecap="round" stroke-linejoin="round"/>
<path d="M340.3 91.1008L348 106.701L351.7 106.901L354.7 89.4008L352.2 85.3008L350.5 96.3008L345.9 96.1008L340.5 88.0008L340.3 91.1008Z" fill="#8A8A8A" stroke="#27282D" stroke-miterlimit="10" stroke-linecap="round" stroke-linejoin="round"/>
<path d="M348 106.701L341.6 153.301L349 168.901L356.9 152.701L351.7 106.901L348 106.701Z" fill="#8A8A8A" stroke="#27282D" stroke-miterlimit="10" stroke-linecap="round" stroke-linejoin="round"/>
<path d="M346.8 104.401L352.8 100.701L354.6 90.2012L351.1 92.4012L350.5 96.3012L345.9 96.1012L345.7 95.9012L343.4 97.4012L346.8 104.401Z" fill="#27282D"/>
<path d="M353.2 120.7L345.4 125.7L344 135.8L354.2 129.3L353.2 120.7Z" fill="#27282D"/>
<path d="M352.6 115.5L351.7 106.9H351.6L347.6 109.5L346.2 119.6L352.6 115.5Z" fill="#27282D"/>
<path d="M354.8 134.5L343.2 141.9L341.8 152L355.8 143.1L354.8 134.5Z" fill="#27282D"/>
<path d="M353.7 159.201L356.9 152.701L356.4 148.301L343.2 156.701L346.6 163.801L353.7 159.201Z" fill="#27282D"/>
<path d="M334.9 73.2006C334.9 73.2006 333.4 82.7006 333.5 86.9006C333.7 91.1006 335.8 98.7006 335.8 98.7006L345.3 87.9006L361.1 97.7006C361.1 97.7006 360.5 77.6006 360.5 77.1006C360.5 76.5006 356.8 54.9006 355.7 52.8006C354.6 50.7006 351.5 49.5006 349.7 49.9006C348 50.2006 334.9 73.2006 334.9 73.2006Z" fill="#0667B3" stroke="#27282D" stroke-miterlimit="10" stroke-linecap="round" stroke-linejoin="round"/>
<path d="M308.2 20.5001C308.2 20.5001 307.7 34.6001 308 40.3001C308.3 46.0001 307.5 50.4001 309 55.1001C310.5 59.8001 312.2 68.7001 313.7 71.7001C315.2 74.7001 318.4 77.5001 323 77.5001C327.6 77.5001 332.8 73.7001 335.3 71.2001C337.8 68.7001 342.1 65.2001 344.4 60.7001C346.7 56.2001 344.7 44.9001 345.1 41.7001C345.4 38.5001 346.1 33.1001 346.1 33.1001C346.1 33.1001 349.4 25.0001 346.8 21.1001C344.1 17.3001 332.3 13.0001 323.3 13.8001C314.4 14.6001 308.2 20.5001 308.2 20.5001Z" fill="white" stroke="#27282D" stroke-miterlimit="10" stroke-linecap="round" stroke-linejoin="round"/>
<path d="M316 36.4004L317.3 41.4004C317.3 41.4004 313.3 53.0004 314.3 53.7004C315.3 54.4004 323.4 53.5004 323.4 53.5004" stroke="#27282D" stroke-miterlimit="10" stroke-linecap="round" stroke-linejoin="round"/>
<path d="M322.5 31.2999C322.5 31.2999 322.3 33.0999 323 33.4999C323.7 33.7999 330.2 36.2999 331.1 35.9999C332.1 35.6999 330.8 34.2999 329.9 33.9999C329.2 33.5999 322.2 29.7999 322.5 31.2999Z" fill="#27282D" stroke="#27282D" stroke-miterlimit="10" stroke-linecap="round" stroke-linejoin="round"/>
<path d="M316 33.9005C316 33.9005 310.7 36.9005 309.7 37.1005C308.7 37.3005 310.4 35.1005 310.4 35.1005C310.4 35.1005 314.4 30.6005 315.4 31.3005C316.3 31.9005 316 33.9005 316 33.9005Z" fill="#27282D" stroke="#27282D" stroke-miterlimit="10" stroke-linecap="round" stroke-linejoin="round"/>
<path d="M324.5 40.6006C324.5 40.6006 327.3 43.6006 331.2 41.3006" stroke="#27282D" stroke-miterlimit="10" stroke-linecap="round" stroke-linejoin="round"/>
<path d="M310.7 41.9004C310.7 41.9004 313.4 43.6004 316 40.9004" stroke="#27282D" stroke-miterlimit="10" stroke-linecap="round" stroke-linejoin="round"/>
<path d="M345.1 41.7004C345.4 38.8004 346 34.1004 346.1 33.2004L342.8 31.4004C342.8 31.4004 343.8 43.7004 342.5 50.5004C341.2 57.3004 338.8 59.5004 336.2 60.5004C333.5 61.5004 332.2 60.2004 332.2 60.2004C332.2 60.2004 325.9 54.2004 320.2 54.0004C315.3 53.9004 311.5 59.3004 310.6 60.7004C311.7 65.0004 312.7 69.7004 313.7 71.7004C315.2 74.7004 318.4 77.5004 323 77.5004C327.6 77.5004 332.8 73.7004 335.3 71.2004C337.8 68.7004 342.1 65.2004 344.4 60.7004C346.8 56.2004 344.8 44.9004 345.1 41.7004Z" fill="#27282D" stroke="#27282D" stroke-miterlimit="10" stroke-linecap="round" stroke-linejoin="round"/>
<path d="M328.2 65.2C328.2 65.2 324.7 60.2 321.4 59.4C318.1 58.6 314.6 65.1 315.7 66.2C316.9 67.4 318.5 63 321.7 64.4C324.8 65.7 326.7 67.9 328.2 65.2Z" fill="white" stroke="#27282D" stroke-miterlimit="10" stroke-linecap="round" stroke-linejoin="round"/>
<path d="M307.7 11.6004C307.7 11.6004 302.7 10.1004 299.6 11.8004C296.4 13.5004 294.9 17.1004 294.9 17.1004L301.4 17.6004L304.4 19.1004C304.4 19.1004 303.1 19.1004 302.4 20.9004C301.7 22.7004 301.2 24.9004 301.2 24.9004C301.2 24.9004 303.5 23.6004 307.2 23.1004C310.9 22.6004 318 20.4004 318 20.4004L318.8 25.9004C318.8 25.9004 323 23.2004 326.3 22.2004C329.6 21.2004 331.6 19.0004 331.6 19.0004C331.6 19.0004 340.2 22.3004 340.1 23.8004C339.9 25.3004 336.9 29.0004 337.9 30.1004C338.9 31.3004 341.6 33.8004 341.6 33.8004L351.6 39.5004C351.6 39.5004 355.3 33.8004 357.1 24.9004C358.9 15.9004 350.6 6.30039 343.6 3.60039C336.6 0.900388 331.5 1.90039 327.1 2.10039C322.8 2.30039 316.8 0.900391 316.8 0.900391L320.8 5.10039C320.8 5.10039 317 6.60039 315.3 6.90039C313.6 7.20039 310.8 8.10039 310.1 7.70039C309.4 7.40039 307.1 5.90039 307.1 5.90039C307.1 5.90039 306 11.0004 307.7 11.6004Z" fill="#27282D" stroke="#27282D" stroke-miterlimit="10" stroke-linecap="round" stroke-linejoin="round"/>
<path d="M347.8 48.7003C347.8 48.7003 350.3 47.4003 351.6 45.4003C352.9 43.4003 356.8 35.8003 352.3 33.6003C348.9 32.0003 346.6 34.9003 345.8 36.4003C345.6 38.1003 345.4 40.2003 345.2 41.7003C344.9 44.9003 346.9 56.2003 344.5 60.7003C342.2 65.2003 337.8 68.7003 335.4 71.2003C334.4 72.2003 333.1 73.3003 331.5 74.4003L335.7 75.6003C335.7 75.6003 337 79.8003 340.7 84.4003C344.4 89.1003 347.5 92.1003 347.5 92.1003C347.5 92.1003 348.5 86.1003 351.2 72.8003C353.9 59.5003 351.9 51.8003 351.9 51.8003L347.8 48.7003Z" fill="white" stroke="#27282D" stroke-miterlimit="10" stroke-linecap="round" stroke-linejoin="round"/>
<path d="M335.6 75.5L341.4 77.2L338.6 81.4C338.6 81.3 336.3 77.5 335.6 75.5Z" fill="#27282D" stroke="#27282D" stroke-miterlimit="10" stroke-linecap="round" stroke-linejoin="round"/>
<path d="M370.8 71.0004L375.6 191.6L386.4 192.4C386.4 192.4 395.7 153.4 398.4 140.1C401.1 126.8 402.1 118.3 401.9 107.7C401.7 97.1004 399.2 75.1004 399.2 75.1004C399.2 75.1004 393.6 65.6004 388.8 62.4004" fill="#0667B3"/>
<path d="M370.8 71.0004L375.6 191.6L386.4 192.4C386.4 192.4 395.7 153.4 398.4 140.1C401.1 126.8 402.1 118.3 401.9 107.7C401.7 97.1004 399.2 75.1004 399.2 75.1004C399.2 75.1004 393.6 65.6004 388.8 62.4004" stroke="#27282D" stroke-miterlimit="10" stroke-linecap="round" stroke-linejoin="round"/>
<path d="M392.7 93.6004C393.7 90.4004 394.3 88.4004 394.3 88.4004" stroke="#27282D" stroke-miterlimit="10" stroke-linecap="round" stroke-linejoin="round"/>
<path d="M373.7 140.9C373.7 140.9 378.3 130.1 383.7 118.1C386.6 111.6 389.5 103.3 391.5 97.2002" stroke="#27282D" stroke-miterlimit="10" stroke-linecap="round" stroke-linejoin="round"/>
<path d="M386.5 124.601C386.2 125.401 385.9 126.101 385.6 126.701" stroke="#27282D" stroke-miterlimit="10" stroke-linecap="round" stroke-linejoin="round"/>
<path d="M392.2 102.5C392.2 102.5 389.8 113.8 387.6 121.3" stroke="#27282D" stroke-miterlimit="10" stroke-linecap="round" stroke-linejoin="round"/>
<path d="M375.6 181L388.5 181.6" stroke="#27282D" stroke-miterlimit="10" stroke-linecap="round" stroke-linejoin="round"/>
<path d="M375.6 191.7C375.6 191.7 374.1 210.3 374.1 211.9C374.1 213.5 375.4 225.3 375.7 226.2C376 227.2 384.2 233.3 385 233.3C385.8 233.3 390.3 233.8 391.1 232.5C391.9 231.2 392.2 230.4 391.1 230.1C390 229.8 386.9 229.9 386.9 229.9L385.1 229.1C385.1 229.1 391.7 228.5 392.2 228.3C392.7 228.1 395.1 226.5 395.6 225.4C396.1 224.3 395.3 223 395.3 223C395.3 223 397.7 220.7 397.9 219.9C398.1 219.1 398.2 216.8 397.1 217.2C396 217.6 394.4 219.3 394.4 219.3H390.4C390.4 219.3 394.6 216.6 395.1 215.8C395.6 215 396.2 211.6 396.1 210.6C395.9 209.6 393.8 210.8 393.4 211.7C392.9 212.7 392.1 215.2 392.1 215.2L387.3 215.8L385.7 213.7C385.7 213.7 388.9 203.7 388.9 201.6C388.9 199.5 386.6 192.3 386.6 192.3L375.6 191.7Z" fill="white" stroke="#27282D" stroke-miterlimit="10" stroke-linecap="round" stroke-linejoin="round"/>
<path d="M381.5 216.101C381.5 216.101 385 219.201 386 219.501C387 219.801 390.3 219.301 390.3 219.301" stroke="#27282D" stroke-miterlimit="10" stroke-linecap="round" stroke-linejoin="round"/>
<path d="M379.4 219.601C379.4 219.601 384.9 224.401 386.3 224.401C387.7 224.401 395.3 223.001 395.3 223.001" stroke="#27282D" stroke-miterlimit="10" stroke-linecap="round" stroke-linejoin="round"/>
<path d="M378.3 223.8C378.3 223.8 381.5 227.7 382.5 228C383.5 228.3 385.2 229.1 385.2 229.1" stroke="#27282D" stroke-miterlimit="10" stroke-linecap="round" stroke-linejoin="round"/>
</svg>
