<svg xmlns="http://www.w3.org/2000/svg" width="19.486" height="19.486" viewBox="0 0 19.486 19.486">
  <g id="phone-alt" transform="translate(-0.492 19.486) rotate(-90)">
    <path id="Path_12396" data-name="Path 12396" d="M18.93,13.776l-4.263-1.827a.913.913,0,0,0-1.066.263l-1.888,2.306A14.107,14.107,0,0,1,4.971,7.774L7.277,5.887A.911.911,0,0,0,7.54,4.821L5.713.558A.92.92,0,0,0,4.666.029L.708.943A.913.913,0,0,0,0,1.833,17.657,17.657,0,0,0,17.659,19.492a.913.913,0,0,0,.891-.708l.913-3.958a.924.924,0,0,0-.533-1.05Z" transform="translate(0 0.486)" fill="#0667b3"/>
  </g>
</svg>
